<svg width="563" height="664" viewBox="0 0 563 664" fill="none" xmlns="http://www.w3.org/2000/svg">
<g filter="url(#filter0_f_1058_328)">
<path d="M290.239 29.2433C319.159 31.2549 346.691 37.8642 371.829 51.8491C412.481 74.4548 445.28 108.651 466.827 149.791C484.208 182.934 496.993 222.494 497.615 260.329V313.204C497.615 313.204 512.267 301.23 521.892 308.558C536.879 319.909 533.623 362.63 532.234 378.53C529.553 408.799 517.822 436.913 493.881 456.549C493.881 456.549 421.004 627.481 290.334 635H272.666C141.996 627.481 69.1197 456.549 69.1197 456.549C45.1787 436.96 33.3997 408.799 30.7662 378.53C29.3776 362.582 26.1217 319.909 41.1087 308.558C50.7809 301.23 65.3849 313.204 65.3849 313.204V260.329C65.3849 211.526 86.6923 158.604 114.703 119.762C134.287 92.5585 159.617 69.9049 188.729 53.2859C215.399 38.0557 245.756 30.4407 277.406 29.0997C281.716 28.9081 286.025 29.0039 290.287 29.2912L290.239 29.2433Z" stroke="white" stroke-width="9.5283" stroke-linejoin="round"/>
</g>
<path d="M277.301 26.7197C281.539 26.5312 285.765 26.6181 289.93 26.8837C290.085 26.8635 290.244 26.856 290.404 26.8671C319.58 28.8965 347.472 35.5728 372.987 49.7675L374.906 50.8466C415.088 73.6865 447.52 107.795 468.936 148.685C486.437 182.055 499.367 221.982 499.997 260.29V308.66C501.442 307.772 503.226 306.789 505.209 305.942C510.26 303.786 517.441 302.179 523.33 306.659L523.731 306.973C527.833 310.274 530.52 315.488 532.304 321.351C534.16 327.447 535.132 334.551 535.581 341.688C536.479 355.969 535.302 370.779 534.607 378.737L534.606 378.74C531.9 409.294 520.085 437.899 495.84 458.017C495.695 458.347 495.481 458.828 495.201 459.45C494.628 460.72 493.774 462.577 492.641 464.938C490.377 469.662 486.999 476.408 482.539 484.522C473.62 500.746 460.356 522.465 442.976 544.433C408.284 588.282 356.836 633.559 290.471 637.378C290.426 637.38 290.379 637.382 290.334 637.382H272.666C272.62 637.382 272.575 637.38 272.529 637.378C206.164 633.559 154.715 588.282 120.023 544.433C102.643 522.465 89.3793 500.746 80.4607 484.522C76.0001 476.408 72.6228 469.662 70.3582 464.938C69.2258 462.577 68.3714 460.72 67.7986 459.45C67.5187 458.83 67.3059 458.349 67.1609 458.018C42.9143 437.948 31.052 409.295 28.3933 378.737C27.6985 370.756 26.5207 355.945 27.4187 341.671C27.8676 334.536 28.8403 327.435 30.6961 321.343C32.5382 315.295 35.3411 309.938 39.6697 306.659C45.581 302.181 52.7588 303.783 57.8103 305.942C59.7855 306.787 61.562 307.767 63.0027 308.653V260.329C63.0028 210.907 84.5455 157.509 112.771 118.369C132.557 90.8851 158.144 68.0021 187.548 51.2167C214.6 35.7686 245.339 28.0745 277.301 26.7197ZM67.7664 313.204C67.7662 314.125 67.236 314.962 66.4041 315.356C65.5721 315.75 64.5878 315.629 63.8757 315.046V315.048C63.8757 315.048 63.8746 315.046 63.8728 315.045C63.8689 315.042 63.8611 315.035 63.8504 315.026C63.8288 315.009 63.7941 314.981 63.7468 314.944C63.6512 314.869 63.5036 314.755 63.3103 314.61C62.9233 314.321 62.3526 313.908 61.6355 313.433C60.1937 312.477 58.1954 311.288 55.9373 310.323C51.4147 308.39 46.6176 307.654 42.9031 310.2L42.5466 310.457C39.382 312.854 36.9727 317.088 35.2537 322.731C33.5482 328.331 32.6106 335.024 32.1736 341.97C31.3 355.856 32.4457 370.357 33.1394 378.324C35.7314 408.115 47.2973 435.616 70.6277 454.705C70.9252 454.948 71.1595 455.261 71.3103 455.614L69.1199 456.549C71.3107 455.615 71.3113 455.615 71.3113 455.615C71.3113 455.615 71.3123 455.618 71.3132 455.62C71.3151 455.624 71.3181 455.631 71.322 455.641C71.3301 455.659 71.3423 455.689 71.3591 455.727C71.3931 455.806 71.4451 455.925 71.5144 456.083C71.653 456.399 71.8621 456.872 72.1414 457.491C72.6999 458.729 73.5387 460.552 74.6541 462.879C76.8853 467.533 80.2225 474.199 84.6355 482.227C93.4647 498.287 106.587 519.771 123.76 541.477C158.162 584.959 208.465 628.893 272.74 632.618H290.26C354.535 628.893 404.838 584.959 439.24 541.477C456.413 519.771 469.535 498.287 478.364 482.227C482.777 474.199 486.114 467.533 488.345 462.879C489.461 460.552 490.301 458.729 490.859 457.491C491.138 456.872 491.348 456.399 491.486 456.083C491.555 455.925 491.606 455.806 491.64 455.727C491.657 455.688 491.67 455.659 491.678 455.641C491.682 455.631 491.685 455.624 491.687 455.62C491.688 455.618 491.689 455.615 491.689 455.615C491.694 455.617 491.793 455.658 493.714 456.477L491.689 455.615C491.84 455.262 492.073 454.95 492.37 454.707C515.702 435.57 527.222 408.115 529.861 378.32C530.555 370.377 531.699 355.878 530.826 341.987C530.389 335.038 529.452 328.34 527.747 322.737C526.028 317.089 523.617 312.853 520.453 310.457L520.448 310.453C516.714 307.61 511.759 308.327 507.08 310.324C504.818 311.29 502.815 312.478 501.369 313.435C500.65 313.91 500.077 314.322 499.688 314.612C499.494 314.757 499.347 314.871 499.251 314.946C499.203 314.984 499.168 315.012 499.146 315.029C499.135 315.038 499.128 315.044 499.124 315.047L499.122 315.049L499.121 315.048C498.408 315.629 497.426 315.75 496.594 315.356C495.763 314.962 495.233 314.124 495.233 313.204V260.368C494.618 223.004 481.979 183.811 464.718 150.897L464.717 150.896C443.379 110.155 410.905 76.3039 370.672 53.9306C346.05 40.2331 319.043 33.6887 290.556 31.6552C290.415 31.6713 290.271 31.6777 290.126 31.6679C285.935 31.3853 281.716 31.2925 277.511 31.4794H277.507C246.66 32.7864 217.133 40.1091 191.144 54.6562L189.91 55.3544C161.09 71.8068 136.018 94.231 116.636 121.153L116.636 121.155C88.8395 159.699 67.7664 212.144 67.7664 260.329V313.204Z" fill="white"/>
<defs>
<filter id="filter0_f_1058_328" x="0.892136" y="0.415085" width="561.216" height="663.17" filterUnits="userSpaceOnUse" color-interpolation-filters="sRGB">
<feFlood flood-opacity="0" result="BackgroundImageFix"/>
<feBlend mode="normal" in="SourceGraphic" in2="BackgroundImageFix" result="shape"/>
<feGaussianBlur stdDeviation="11.9104" result="effect1_foregroundBlur_1058_328"/>
</filter>
</defs>
</svg>
