<svg width="180" height="174" viewBox="0 0 180 174" fill="none" xmlns="http://www.w3.org/2000/svg">
<rect width="179.279" height="173.236" rx="86.6179" fill="black" fill-opacity="0.65"/>
<path d="M124.503 56.9836H112.423L106.483 48.0759C106.165 47.5989 105.734 47.2078 105.228 46.9371C104.723 46.6665 104.158 46.5248 103.585 46.5244H75.6936C75.1202 46.5248 74.5558 46.6665 74.0502 46.9371C73.5447 47.2078 73.1138 47.5989 72.7955 48.0759L66.8512 56.9836H54.7751C52.0012 56.9836 49.3408 58.0856 47.3794 60.0471C45.4179 62.0086 44.3159 64.6689 44.3159 67.4429V116.253C44.3159 119.027 45.4179 121.687 47.3794 123.648C49.3408 125.61 52.0012 126.712 54.7751 126.712H124.503C127.277 126.712 129.938 125.61 131.899 123.648C133.861 121.687 134.963 119.027 134.963 116.253V67.4429C134.963 64.6689 133.861 62.0086 131.899 60.0471C129.938 58.0856 127.277 56.9836 124.503 56.9836ZM127.99 116.253C127.99 117.177 127.622 118.064 126.969 118.718C126.315 119.372 125.428 119.739 124.503 119.739H54.7751C53.8505 119.739 52.9637 119.372 52.3099 118.718C51.6561 118.064 51.2887 117.177 51.2887 116.253V67.4429C51.2887 66.5182 51.6561 65.6314 52.3099 64.9776C52.9637 64.3238 53.8505 63.9565 54.7751 63.9565H68.7208C69.2949 63.9568 69.8603 63.8154 70.3666 63.5448C70.8729 63.2741 71.3046 62.8826 71.6232 62.405L77.5588 53.4972H101.715L107.655 62.405C107.974 62.8826 108.406 63.2741 108.912 63.5448C109.418 63.8154 109.984 63.9568 110.558 63.9565H124.503C125.428 63.9565 126.315 64.3238 126.969 64.9776C127.622 65.6314 127.99 66.5182 127.99 67.4429V116.253ZM89.6393 70.9293C85.8467 70.9293 82.1394 72.0539 78.986 74.1609C75.8327 76.2679 73.375 79.2627 71.9236 82.7665C70.4723 86.2703 70.0926 90.1258 70.8324 93.8454C71.5723 97.5651 73.3986 100.982 76.0803 103.663C78.762 106.345 82.1787 108.171 85.8983 108.911C89.618 109.651 93.4735 109.271 96.9773 107.82C100.481 106.369 103.476 103.911 105.583 100.758C107.69 97.6044 108.815 93.8971 108.815 90.1045C108.809 85.0207 106.787 80.1468 103.192 76.552C99.597 72.9571 94.7231 70.9351 89.6393 70.9293ZM89.6393 102.307C87.2258 102.307 84.8666 101.591 82.8599 100.25C80.8533 98.9097 79.2892 97.0039 78.3657 94.7742C77.4421 92.5445 77.2004 90.091 77.6713 87.724C78.1421 85.3569 79.3043 83.1827 81.0108 81.4761C82.7174 79.7696 84.8916 78.6074 87.2587 78.1366C89.6257 77.6657 92.0792 77.9074 94.3089 78.831C96.5386 79.7545 98.4444 81.3186 99.7852 83.3252C101.126 85.3319 101.842 87.6911 101.842 90.1045C101.842 93.3408 100.556 96.4446 98.2677 98.733C95.9793 101.021 92.8755 102.307 89.6393 102.307Z" fill="white"/>
<circle cx="89.5" cy="86.5" r="16.5" fill="white" fill-opacity="0.2"/>
</svg>
