<svg width="57" height="56" viewBox="0 0 57 56" fill="none" xmlns="http://www.w3.org/2000/svg">
<g clip-path="url(#clip0_1058_129)">
<path d="M18.7221 16.3344C21.5195 13.9104 25.0984 12.5783 28.8 12.5835C37.3146 12.5835 44.2166 19.4856 44.2166 28.0002C44.2166 31.2932 43.1837 34.3457 41.4262 36.8493L36.5083 28.0002H41.1333C41.1335 25.5823 40.423 23.2176 39.0901 21.2003C37.7572 19.1829 35.8607 17.6019 33.6365 16.6537C31.4122 15.7055 28.9583 15.4321 26.5799 15.8673C24.2015 16.3025 22.0035 17.4273 20.2591 19.1017L18.7221 16.3344ZM38.8778 39.666C36.0804 42.09 32.5015 43.422 28.8 43.4168C20.2853 43.4168 13.3833 36.5148 13.3833 28.0002C13.3833 24.7072 14.4162 21.6547 16.1737 19.151L21.0916 28.0002H16.4666C16.4664 30.4181 17.177 32.7827 18.5099 34.8001C19.8428 36.8174 21.7392 38.3985 23.9635 39.3467C26.1877 40.2948 28.6416 40.5683 31.02 40.1331C33.3985 39.6978 35.5965 38.5731 37.3408 36.8987L38.8778 39.666Z" fill="white"/>
</g>
<defs>
<clipPath id="clip0_1058_129">
<rect width="37" height="37" fill="white" transform="translate(10.2998 9.5)"/>
</clipPath>
</defs>
</svg>
